<svg
    version="1.1"
    id="Fleuron 1"
    xmlns="http://www.w3.org/2000/svg"
    xmlns:xlink="http://www.w3.org/1999/xlink"
    x="0px" y="0px"
	width="100%"
    height="100%"
    viewBox="0 0 100 100">
    
    <polygon fill="#A5A05E" points="85.875,19.269 86.029,1.226 50.615,41.692 45.752,36.086 59.652,21.378 50.711,13.007 
	37.863,26.985 15.529,1.226 15.687,19.269 29.98,35.56 17.073,49.6 24.6,58.454 37.817,44.483 43.007,50.392 15.179,82.189 
	15.235,99 50.615,59.066 55.426,64.543 43.45,77.561 50.978,86.422 63.248,73.445 85.683,99 85.732,82.189 71.019,65.224 
	86.029,49.353 77.089,40.974 63.143,56.146 58.223,50.473 "/>
</svg>
