<?xml version="1.0" encoding="utf-8"?>
<!-- Generator: Adobe Illustrator 16.0.4, SVG Export Plug-In . SVG Version: 6.00 Build 0)  -->
<!DOCTYPE svg PUBLIC "-//W3C//DTD SVG 1.1//EN" "http://www.w3.org/Graphics/SVG/1.1/DTD/svg11.dtd">
<svg version="1.1" id="Fleuron_1" xmlns="http://www.w3.org/2000/svg" xmlns:xlink="http://www.w3.org/1999/xlink" x="0px" y="0px"
	 width="362.83px" height="272.129px" viewBox="0 0 362.83 272.129" enable-background="new 0 0 362.83 272.129"
	 xml:space="preserve">
<polygon fill="#FADF06" points="279.042,52.437 279.461,3.336 183.089,113.457 169.855,98.201 207.681,58.176 183.351,35.396 
	148.387,73.434 87.609,3.336 88.039,52.437 126.935,96.77 91.811,134.977 112.294,159.071 148.261,121.052 162.385,137.131 
	86.657,223.661 86.809,269.409 183.089,160.737 196.181,175.641 163.59,211.067 184.077,235.18 217.467,199.866 278.519,269.409 
	278.652,223.661 238.614,177.495 279.461,134.304 255.132,111.502 217.181,152.79 203.792,137.352 "/>
</svg>
